<svg width="100%" height="100%" xmlns="http://www.w3.org/2000/svg">
  <defs>
    <pattern id="grid" width="60" height="60" patternUnits="userSpaceOnUse">
      <path d="M 60 0 L 0 0 0 60" fill="none" stroke="rgba(255,150,0,0.1)" stroke-width="0.5" />
    </pattern>
    <radialGradient id="dotGradient" cx="50%" cy="50%" r="50%" fx="50%" fy="50%">
      <stop offset="0%" stop-color="rgba(255,150,0,0.3)" />
      <stop offset="100%" stop-color="rgba(255,150,0,0)" />
    </radialGradient>
  </defs>
  <rect width="100%" height="100%" fill="url(#grid)" />
  <g>
    <circle cx="30" cy="30" r="1" fill="rgba(255,150,0,0.15)" />
    <circle cx="90" cy="30" r="1" fill="rgba(255,150,0,0.15)" />
    <circle cx="150" cy="30" r="1" fill="rgba(255,150,0,0.15)" />
    <circle cx="210" cy="30" r="1" fill="rgba(255,150,0,0.15)" />
    <circle cx="270" cy="30" r="1" fill="rgba(255,150,0,0.15)" />

    <circle cx="30" cy="90" r="1" fill="rgba(255,150,0,0.15)" />
    <circle cx="90" cy="90" r="1" fill="rgba(255,150,0,0.15)" />
    <circle cx="150" cy="90" r="1" fill="rgba(255,150,0,0.15)" />
    <circle cx="210" cy="90" r="1" fill="rgba(255,150,0,0.15)" />
    <circle cx="270" cy="90" r="1" fill="rgba(255,150,0,0.15)" />

    <circle cx="30" cy="150" r="1" fill="rgba(255,150,0,0.15)" />
    <circle cx="90" cy="150" r="1" fill="rgba(255,150,0,0.15)" />
    <circle cx="150" cy="150" r="1" fill="rgba(255,150,0,0.15)" />
    <circle cx="210" cy="150" r="1" fill="rgba(255,150,0,0.15)" />
    <circle cx="270" cy="150" r="1" fill="rgba(255,150,0,0.15)" />

    <circle cx="30" cy="210" r="1" fill="rgba(255,150,0,0.15)" />
    <circle cx="90" cy="210" r="1" fill="rgba(255,150,0,0.15)" />
    <circle cx="150" cy="210" r="1" fill="rgba(255,150,0,0.15)" />
    <circle cx="210" cy="210" r="1" fill="rgba(255,150,0,0.15)" />
    <circle cx="270" cy="210" r="1" fill="rgba(255,150,0,0.15)" />
  </g>
  <rect width="100%" height="100%" fill="url(#dotGradient)" opacity="0.3" />
</svg>
