<svg width="24" height="24" viewBox="0 0 24 24" xmlns="http://www.w3.org/2000/svg">
  <defs>
    <linearGradient id="teleGradient" x1="0%" y1="0%" x2="100%" y2="0%">
      <stop offset="0%" stop-color="#FF9600" />
      <stop offset="100%" stop-color="#FFCC00" />
    </linearGradient>
  </defs>
  <path d="M20.665 3.717L2.93308 10.5547C1.72474 11.0396 1.73407 11.7148 2.71192 12.0216L7.26175 13.4308L17.7974 6.79044C18.2954 6.48711 18.7498 6.65154 18.3857 6.98308L9.84354 14.6764H9.84179L9.84354 14.6771L9.52757 19.3571C9.98757 19.3571 10.1892 19.1461 10.4419 18.9033L12.6598 16.7552L17.2605 20.1137C18.1076 20.5776 18.7066 20.3404 18.9183 19.3582L21.9318 5.07594C22.2419 3.87524 21.474 3.30997 20.665 3.717Z"
        fill="url(#teleGradient)" />
  <path d="M20.665 3.717L2.93308 10.5547C1.72474 11.0396 1.73407 11.7148 2.71192 12.0216L7.26175 13.4308L17.7974 6.79044C18.2954 6.48711 18.7498 6.65154 18.3857 6.98308L9.84354 14.6764H9.84179L9.84354 14.6771L9.52757 19.3571C9.98757 19.3571 10.1892 19.1461 10.4419 18.9033L12.6598 16.7552L17.2605 20.1137C18.1076 20.5776 18.7066 20.3404 18.9183 19.3582L21.9318 5.07594C22.2419 3.87524 21.474 3.30997 20.665 3.717Z"
        fill="none"
        stroke="white"
        stroke-width="0.5"
        opacity="0.3" />
</svg>
